# Blender v2.90.1 OBJ File: ''
# www.blender.org
mtllib island.mtl
o Landscape.014
v -29.078947 -2.000000 11.973684
v -29.078947 -2.000000 8.552631
v -29.078947 -2.000000 5.131579
v -29.078947 -2.000000 1.710526
v -29.078947 -2.000000 -1.710526
v -29.078947 -2.000000 -5.131579
v -29.078947 -2.000000 -8.552631
v -25.657894 -2.000000 18.815790
v -25.657894 -2.000000 15.394737
v -25.657894 -2.000000 11.973684
v -25.657894 1.000000 8.552631
v -25.657894 1.000000 5.131579
v -25.657894 1.000000 1.710526
v -25.657894 1.000000 -1.710526
v -25.657894 1.000000 -5.131579
v -25.657894 1.000000 -8.552631
v -25.657894 -2.000000 -11.973684
v -25.657894 -2.000000 -15.394737
v -25.657894 -2.000000 -18.815790
v -22.236841 -2.000000 18.815790
v -22.236841 -1.100891 15.394737
v -22.236841 1.000000 11.973684
v -22.236841 1.000000 8.552631
v -22.236841 1.000000 5.131579
v -22.236841 1.000000 1.710526
v -22.236841 1.000000 -1.710526
v -22.236841 1.000000 -5.131579
v -22.236841 1.000000 -8.552631
v -22.236841 1.000000 -11.973684
v -22.236841 1.000000 -15.394737
v -22.236841 0.550449 -18.815790
v -22.236841 -2.000000 -22.236841
v -18.815790 -2.000000 25.657894
v -18.815790 -2.000000 22.236841
v -18.815790 -2.000000 18.815790
v -18.815790 1.000000 15.394737
v -18.815790 1.000000 11.973684
v -18.815790 1.000000 8.552631
v -18.815790 1.000000 5.131579
v -18.815790 1.000000 1.710526
v -18.815790 1.000000 -1.710526
v -18.815790 1.000000 -5.131579
v -18.815790 1.000000 -8.552631
v -18.815790 1.000000 -11.973684
v -18.815790 1.000000 -15.394737
v -18.815790 -2.000000 -18.815790
v -18.815790 -2.000000 -22.236841
v -15.394737 -2.000000 25.657894
v -15.394737 -2.000000 22.236841
v -15.394737 1.000000 18.815790
v -15.394737 1.000000 15.394737
v -15.394737 1.000000 11.973684
v -15.394737 1.000000 8.552631
v -15.394737 1.000000 5.131579
v -15.394737 1.000000 1.710526
v -15.394737 1.000000 -1.710526
v -15.394737 1.000000 -5.131579
v -15.394737 1.000000 -8.552631
v -15.394737 1.000000 -11.973684
v -15.394737 1.000000 -15.394737
v -15.394737 1.000000 -18.815790
v -15.394737 -2.000000 -22.236841
v -11.973684 -2.000000 25.657894
v -11.973684 -1.312817 22.236841
v -11.973684 1.000000 18.815790
v -11.973684 1.000000 15.394737
v -11.973684 1.000000 11.973684
v -11.973684 1.000000 8.552631
v -11.973684 1.000000 5.131579
v -11.973684 1.000000 1.710526
v -11.973684 1.000000 -1.710526
v -11.973684 1.000000 -5.131579
v -11.973684 1.000000 -8.552631
v -11.973684 1.000000 -11.973684
v -11.973684 1.000000 -15.394737
v -11.973684 1.000000 -18.815790
v -11.973684 -2.000000 -22.236841
v -8.552631 -2.000000 25.657894
v -8.552631 -0.883839 22.236841
v -8.552631 1.000000 18.815790
v -8.552631 1.000000 15.394737
v -8.552631 1.000000 11.973684
v -8.552631 1.000000 8.552631
v -8.552631 1.000000 5.131579
v -8.552631 1.000000 1.710526
v -8.552631 1.000000 -1.710526
v -8.552631 1.000000 -5.131579
v -8.552631 1.000000 -8.552631
v -8.552631 1.000000 -11.973684
v -8.552631 1.000000 -15.394737
v -8.552631 1.000000 -18.815790
v -8.552631 -2.000000 -22.236841
v -5.131579 -2.000000 25.657894
v -5.131579 -1.279050 22.236841
v -5.131579 1.000000 18.815790
v -5.131579 1.000000 15.394737
v -5.131579 1.000000 11.973684
v -5.131579 1.000000 8.552631
v -5.131579 1.000000 5.131579
v -5.131579 1.000000 1.710526
v -5.131579 1.000000 -1.710526
v -5.131579 1.000000 -5.131579
v -5.131579 1.000000 -8.552631
v -5.131579 1.000000 -11.973684
v -5.131579 1.000000 -15.394737
v -5.131579 1.000000 -18.815790
v -5.131579 0.069736 -22.236841
v -5.131579 -2.000000 -25.657894
v -1.710526 -2.000000 25.657894
v -1.710526 -2.000000 22.236841
v -1.710526 0.633126 18.815790
v -1.710526 1.000000 15.394737
v -1.710526 1.000000 11.973684
v -1.710526 1.000000 8.552631
v -1.710526 1.000000 5.131579
v -1.710526 1.000000 1.710526
v -1.710526 1.000000 -1.710526
v -1.710526 1.000000 -5.131579
v -1.710526 1.000000 -8.552631
v -1.710526 1.000000 -11.973684
v -1.710526 1.000000 -15.394737
v -1.710526 1.000000 -18.815790
v -1.710526 -2.000000 -22.236841
v -1.710526 -2.000000 -25.657894
v 1.710526 -2.000000 25.657894
v 1.710526 -2.000000 22.236841
v 1.710526 1.000000 18.815790
v 1.710526 1.000000 15.394737
v 1.710526 1.000000 11.973684
v 1.710526 1.000000 8.552631
v 1.710526 1.000000 5.131579
v 1.710526 1.000000 1.710526
v 1.710526 1.000000 -1.710526
v 1.710526 1.000000 -5.131579
v 1.710526 1.000000 -8.552631
v 1.710526 1.000000 -11.973684
v 1.710526 1.000000 -15.394737
v 1.710526 1.000000 -18.815790
v 1.710526 -2.000000 -22.236841
v 5.131579 -2.000000 25.657894
v 5.131579 -2.000000 22.236841
v 5.131579 1.000000 18.815790
v 5.131579 1.000000 15.394737
v 5.131579 1.000000 11.973684
v 5.131579 1.000000 8.552631
v 5.131579 1.000000 5.131579
v 5.131579 1.000000 1.710526
v 5.131579 1.000000 -1.710526
v 5.131579 1.000000 -5.131579
v 5.131579 1.000000 -8.552631
v 5.131579 1.000000 -11.973684
v 5.131579 1.000000 -15.394737
v 5.131579 1.000000 -18.815790
v 5.131579 -2.000000 -22.236841
v 8.552631 -2.000000 25.657894
v 8.552631 -0.333133 22.236841
v 8.552631 1.000000 18.815790
v 8.552631 1.000000 15.394737
v 8.552631 1.000000 11.973684
v 8.552631 1.000000 8.552631
v 8.552631 1.000000 5.131579
v 8.552631 1.000000 1.710526
v 8.552631 1.000000 -1.710526
v 8.552631 1.000000 -5.131579
v 8.552631 1.000000 -8.552631
v 8.552631 1.000000 -11.973684
v 8.552631 1.000000 -15.394737
v 8.552631 1.000000 -18.815790
v 8.552631 -2.000000 -22.236841
v 11.973684 -2.000000 25.657894
v 11.973684 -2.000000 22.236841
v 11.973684 1.000000 18.815790
v 11.973684 1.000000 15.394737
v 11.973684 1.000000 11.973684
v 11.973684 1.000000 8.552631
v 11.973684 1.000000 5.131579
v 11.973684 1.000000 1.710526
v 11.973684 1.000000 -1.710526
v 11.973684 1.000000 -5.131579
v 11.973684 1.000000 -8.552631
v 11.973684 1.000000 -11.973684
v 11.973684 1.000000 -15.394737
v 11.973684 1.000000 -18.815790
v 11.973684 -2.000000 -22.236841
v 15.394737 -2.000000 25.657894
v 15.394737 -0.749635 22.236841
v 15.394737 1.000000 18.815790
v 15.394737 1.000000 15.394737
v 15.394737 1.000000 11.973684
v 15.394737 1.000000 8.552631
v 15.394737 1.000000 5.131579
v 15.394737 1.000000 1.710526
v 15.394737 1.000000 -1.710526
v 15.394737 1.000000 -5.131579
v 15.394737 1.000000 -8.552631
v 15.394737 1.000000 -11.973684
v 15.394737 1.000000 -15.394737
v 15.394737 -1.222833 -18.815790
v 15.394737 -2.000000 -22.236841
v 18.815790 -2.000000 22.236841
v 18.815790 -1.465195 18.815790
v 18.815790 0.224579 15.394737
v 18.815790 1.000000 11.973684
v 18.815790 1.000000 8.552631
v 18.815790 1.000000 5.131579
v 18.815790 1.000000 1.710526
v 18.815790 1.000000 -1.710526
v 18.815790 1.000000 -5.131579
v 18.815790 1.000000 -8.552631
v 18.815790 1.000000 -11.973684
v 18.815790 1.000000 -15.394737
v 18.815790 1.000000 -18.815790
v 18.815790 -2.000000 -22.236841
v 22.236841 -1.835558 18.815790
v 22.236841 1.000000 15.394737
v 22.236841 1.000000 11.973684
v 22.236841 1.000000 8.552631
v 22.236841 1.000000 5.131579
v 22.236841 1.000000 1.710526
v 22.236841 1.000000 -1.710526
v 22.236841 1.000000 -5.131579
v 22.236841 1.000000 -8.552631
v 22.236841 1.000000 -11.973684
v 22.236841 -0.151148 -15.394737
v 22.236841 -2.000000 -18.815790
v 22.236841 -2.000000 -22.236841
v 25.657894 -2.000000 15.394737
v 25.657894 -1.674724 11.973684
v 25.657894 1.000000 8.552631
v 25.657894 1.000000 5.131579
v 25.657894 1.000000 1.710526
v 25.657894 1.000000 -1.710526
v 25.657894 1.000000 -5.131579
v 25.657894 1.000000 -8.552631
v 25.657894 1.000000 -11.973684
v 25.657894 -2.000000 -15.394737
v 25.657894 -2.000000 -18.815790
v 29.078947 -2.000000 8.552631
v 29.078947 -2.000000 5.131579
v 29.078947 -2.000000 1.710526
v 29.078947 -2.000000 -1.710526
v 29.078947 -2.000000 -5.131579
v 29.078947 -2.000000 -8.552631
v 29.078947 -2.000000 -11.973684
v 29.078947 -2.000000 -15.394737
v 32.500000 -2.000000 15.394737
vn -0.3726 0.8498 0.3726
vn -0.2746 0.9215 0.2746
vn -0.6593 0.7519 0.0000
vn -0.3522 0.9359 0.0000
vn -0.4031 0.8897 -0.2141
vn -0.6425 0.7327 -0.2244
vn -0.6222 0.7096 -0.3305
vn -0.1267 0.9170 0.3782
vn -0.2969 0.9075 0.2969
vn -0.1292 0.9832 0.1292
vn -0.3782 0.9170 0.1267
vn -0.2921 0.9327 0.2112
vn -0.0990 0.9901 0.0990
vn 0.0000 1.0000 0.0000
vn -0.2660 0.9595 -0.0929
vn -0.2737 0.9495 -0.1533
vn -0.6420 0.7664 -0.0213
vn -0.0596 0.9595 -0.2753
vn -0.5853 0.7851 -0.2025
vn -0.2025 0.7851 -0.5853
vn -0.2112 0.9327 0.2921
vn -0.0728 0.9947 0.0728
vn -0.0929 0.9595 -0.2660
vn 0.0322 0.9343 -0.3550
vn 0.1726 0.9698 -0.1726
vn -0.0499 0.9975 0.0499
vn -0.0764 0.9409 0.3299
vn -0.1978 0.9601 0.1978
vn -0.2141 0.8897 -0.4031
vn -0.1794 0.8390 -0.5136
vn -0.0298 0.9736 0.2263
vn -0.1155 0.9288 0.3520
vn -0.0180 0.9505 0.3103
vn 0.0000 0.9359 -0.3522
vn 0.0000 0.7519 -0.6593
vn 0.0271 0.9584 0.2840
vn -0.0029 0.9171 0.3986
vn -0.0125 0.9652 0.2612
vn -0.0602 0.9533 -0.2960
vn -0.2572 0.7520 -0.6068
vn 0.0519 0.9865 0.1551
vn 0.1236 0.9041 0.4089
vn 0.0479 0.9564 0.2882
vn 0.0633 0.9787 -0.1954
vn 0.0351 0.9182 -0.3945
vn -0.1745 0.8425 -0.5097
vn 0.0592 0.9354 0.3485
vn 0.0236 0.9338 0.3569
vn 0.0133 0.9991 0.0400
vn 0.2817 0.8743 -0.3953
vn 0.2781 0.9194 -0.2781
vn 0.0000 0.9359 0.3522
vn -0.0412 0.9395 0.3401
vn -0.0134 0.9998 0.0134
vn -0.1176 0.9861 0.1176
vn -0.1743 0.9371 0.3024
vn 0.1133 0.9359 0.3335
vn -0.0208 0.9145 0.4041
vn -0.0489 0.9712 0.2331
vn -0.0895 0.9919 0.0895
vn 0.0053 0.9354 0.3534
vn 0.0469 0.9501 0.3083
vn 0.0765 0.9941 -0.0765
vn 0.2208 0.9314 -0.2895
vn 0.1149 0.9330 0.3410
vn 0.0793 0.9410 0.3288
vn 0.2006 0.9307 0.3058
vn 0.0834 0.9961 0.0279
vn -0.0735 0.9740 -0.2140
vn 0.0405 0.9203 -0.3890
vn 0.1360 0.9248 -0.3553
vn 0.2795 0.9397 0.1971
vn 0.2656 0.8966 0.3543
vn 0.0860 0.9622 0.2584
vn 0.0279 0.9961 0.0834
vn 0.0414 0.9983 -0.0414
vn 0.2165 0.9747 -0.0553
vn 0.1023 0.9367 -0.3347
vn -0.1252 0.8206 -0.5576
vn 0.2479 0.8214 0.5136
vn 0.2362 0.9297 0.2824
vn 0.2178 0.9691 0.1152
vn 0.0553 0.9747 -0.2165
vn 0.2999 0.9056 -0.2999
vn 0.4016 0.8792 -0.2564
vn 0.3726 0.8498 -0.3726
vn 0.6368 0.7262 0.2592
vn 0.6042 0.7274 0.3251
vn 0.3993 0.8950 0.1989
vn 0.3522 0.9359 0.0000
vn 0.2746 0.9215 -0.2746
vn 0.2564 0.8792 -0.4016
vn 0.2524 0.9341 -0.2524
vn 0.6462 0.7369 0.1986
vn 0.6593 0.7519 0.0000
usemtl None
s 1
f 10//1 11//2 1//1
f 11//2 2//3 1//1
f 11//2 12//4 2//3
f 12//4 3//3 2//3
f 12//4 13//4 3//3
f 13//4 4//3 3//3
f 13//4 14//4 4//3
f 14//4 5//3 4//3
f 14//4 15//4 5//3
f 15//4 6//3 5//3
f 15//4 16//5 6//3
f 16//5 7//6 6//3
f 16//5 17//7 7//6
f 20//8 21//9 8//10
f 21//9 9//11 8//10
f 21//9 22//12 9//11
f 22//12 10//1 9//11
f 22//12 23//13 10//1
f 23//13 11//2 10//1
f 23//13 24//14 11//2
f 24//14 12//4 11//2
f 24//14 25//14 12//4
f 25//14 13//4 12//4
f 25//14 26//14 13//4
f 26//14 14//4 13//4
f 26//14 27//14 14//4
f 27//14 15//4 14//4
f 27//14 28//14 15//4
f 28//14 16//5 15//4
f 28//14 29//15 16//5
f 29//15 17//7 16//5
f 29//15 30//16 17//7
f 30//16 18//17 17//7
f 30//16 31//18 18//17
f 31//18 19//19 18//17
f 31//18 32//20 19//19
f 35//1 36//21 20//8
f 36//21 21//9 20//8
f 36//21 37//22 21//9
f 37//22 22//12 21//9
f 37//22 38//14 22//12
f 38//14 23//13 22//12
f 38//14 39//14 23//13
f 39//14 24//14 23//13
f 39//14 40//14 24//14
f 40//14 25//14 24//14
f 40//14 41//14 25//14
f 41//14 26//14 25//14
f 41//14 42//14 26//14
f 42//14 27//14 26//14
f 42//14 43//14 27//14
f 43//14 28//14 27//14
f 43//14 44//14 28//14
f 44//14 29//15 28//14
f 44//14 45//23 29//15
f 45//23 30//16 29//15
f 45//23 46//24 30//16
f 46//24 31//18 30//16
f 46//24 47//25 31//18
f 47//25 32//20 31//18
f 48//26 49//27 33//14
f 49//27 34//28 33//14
f 49//27 50//2 34//28
f 50//2 35//1 34//28
f 50//2 51//13 35//1
f 51//13 36//21 35//1
f 51//13 52//14 36//21
f 52//14 37//22 36//21
f 52//14 53//14 37//22
f 53//14 38//14 37//22
f 53//14 54//14 38//14
f 54//14 39//14 38//14
f 54//14 55//14 39//14
f 55//14 40//14 39//14
f 55//14 56//14 40//14
f 56//14 41//14 40//14
f 56//14 57//14 41//14
f 57//14 42//14 41//14
f 57//14 58//14 42//14
f 58//14 43//14 42//14
f 58//14 59//14 43//14
f 59//14 44//14 43//14
f 59//14 60//14 44//14
f 60//14 45//23 44//14
f 60//14 61//29 45//23
f 61//29 46//24 45//23
f 61//29 62//30 46//24
f 62//30 47//25 46//24
f 63//31 64//32 48//26
f 64//32 49//27 48//26
f 64//32 65//33 49//27
f 65//33 50//2 49//27
f 65//33 66//14 50//2
f 66//14 51//13 50//2
f 66//14 67//14 51//13
f 67//14 52//14 51//13
f 67//14 68//14 52//14
f 68//14 53//14 52//14
f 68//14 69//14 53//14
f 69//14 54//14 53//14
f 69//14 70//14 54//14
f 70//14 55//14 54//14
f 70//14 71//14 55//14
f 71//14 56//14 55//14
f 71//14 72//14 56//14
f 72//14 57//14 56//14
f 72//14 73//14 57//14
f 73//14 58//14 57//14
f 73//14 74//14 58//14
f 74//14 59//14 58//14
f 74//14 75//14 59//14
f 75//14 60//14 59//14
f 75//14 76//34 60//14
f 76//34 61//29 60//14
f 76//34 77//35 61//29
f 77//35 62//30 61//29
f 78//36 79//37 63//31
f 79//37 64//32 63//31
f 79//37 80//38 64//32
f 80//38 65//33 64//32
f 80//38 81//14 65//33
f 81//14 66//14 65//33
f 81//14 82//14 66//14
f 82//14 67//14 66//14
f 82//14 83//14 67//14
f 83//14 68//14 67//14
f 83//14 84//14 68//14
f 84//14 69//14 68//14
f 84//14 85//14 69//14
f 85//14 70//14 69//14
f 85//14 86//14 70//14
f 86//14 71//14 70//14
f 86//14 87//14 71//14
f 87//14 72//14 71//14
f 87//14 88//14 72//14
f 88//14 73//14 72//14
f 88//14 89//14 73//14
f 89//14 74//14 73//14
f 89//14 90//14 74//14
f 90//14 75//14 74//14
f 90//14 91//39 75//14
f 91//39 76//34 75//14
f 91//39 92//40 76//34
f 92//40 77//35 76//34
f 93//41 94//42 78//36
f 94//42 79//37 78//36
f 94//42 95//43 79//37
f 95//43 80//38 79//37
f 95//43 96//14 80//38
f 96//14 81//14 80//38
f 96//14 97//14 81//14
f 97//14 82//14 81//14
f 97//14 98//14 82//14
f 98//14 83//14 82//14
f 98//14 99//14 83//14
f 99//14 84//14 83//14
f 99//14 100//14 84//14
f 100//14 85//14 84//14
f 100//14 101//14 85//14
f 101//14 86//14 85//14
f 101//14 102//14 86//14
f 102//14 87//14 86//14
f 102//14 103//14 87//14
f 103//14 88//14 87//14
f 103//14 104//14 88//14
f 104//14 89//14 88//14
f 104//14 105//14 89//14
f 105//14 90//14 89//14
f 105//14 106//44 90//14
f 106//44 91//39 90//14
f 106//44 107//45 91//39
f 107//45 92//40 91//39
f 107//45 108//46 92//40
f 109//14 110//47 93//41
f 110//47 94//42 93//41
f 110//47 111//48 94//42
f 111//48 95//43 94//42
f 111//48 112//49 95//43
f 112//49 96//14 95//43
f 112//49 113//14 96//14
f 113//14 97//14 96//14
f 113//14 114//14 97//14
f 114//14 98//14 97//14
f 114//14 115//14 98//14
f 115//14 99//14 98//14
f 115//14 116//14 99//14
f 116//14 100//14 99//14
f 116//14 117//14 100//14
f 117//14 101//14 100//14
f 117//14 118//14 101//14
f 118//14 102//14 101//14
f 118//14 119//14 102//14
f 119//14 103//14 102//14
f 119//14 120//14 103//14
f 120//14 104//14 103//14
f 120//14 121//14 104//14
f 121//14 105//14 104//14
f 121//14 122//34 105//14
f 122//34 106//44 105//14
f 122//34 123//50 106//44
f 123//50 107//45 106//44
f 123//50 124//51 107//45
f 124//51 108//46 107//45
f 125//14 126//52 109//14
f 126//52 110//47 109//14
f 126//52 127//53 110//47
f 127//53 111//48 110//47
f 127//53 128//54 111//48
f 128//54 112//49 111//48
f 128//54 129//14 112//49
f 129//14 113//14 112//49
f 129//14 130//14 113//14
f 130//14 114//14 113//14
f 130//14 131//14 114//14
f 131//14 115//14 114//14
f 131//14 132//14 115//14
f 132//14 116//14 115//14
f 132//14 133//14 116//14
f 133//14 117//14 116//14
f 133//14 134//14 117//14
f 134//14 118//14 117//14
f 134//14 135//14 118//14
f 135//14 119//14 118//14
f 135//14 136//14 119//14
f 136//14 120//14 119//14
f 136//14 137//14 120//14
f 137//14 121//14 120//14
f 137//14 138//34 121//14
f 138//34 122//34 121//14
f 138//34 139//35 122//34
f 139//35 123//50 122//34
f 140//55 141//56 125//14
f 141//56 126//52 125//14
f 141//56 142//52 126//52
f 142//52 127//53 126//52
f 142//52 143//14 127//53
f 143//14 128//54 127//53
f 143//14 144//14 128//54
f 144//14 129//14 128//54
f 144//14 145//14 129//14
f 145//14 130//14 129//14
f 145//14 146//14 130//14
f 146//14 131//14 130//14
f 146//14 147//14 131//14
f 147//14 132//14 131//14
f 147//14 148//14 132//14
f 148//14 133//14 132//14
f 148//14 149//14 133//14
f 149//14 134//14 133//14
f 149//14 150//14 134//14
f 150//14 135//14 134//14
f 150//14 151//14 135//14
f 151//14 136//14 135//14
f 151//14 152//14 136//14
f 152//14 137//14 136//14
f 152//14 153//34 137//14
f 153//34 138//34 137//14
f 153//34 154//35 138//34
f 154//35 139//35 138//34
f 155//57 156//58 140//55
f 156//58 141//56 140//55
f 156//58 157//59 141//56
f 157//59 142//52 141//56
f 157//59 158//14 142//52
f 158//14 143//14 142//52
f 158//14 159//14 143//14
f 159//14 144//14 143//14
f 159//14 160//14 144//14
f 160//14 145//14 144//14
f 160//14 161//14 145//14
f 161//14 146//14 145//14
f 161//14 162//14 146//14
f 162//14 147//14 146//14
f 162//14 163//14 147//14
f 163//14 148//14 147//14
f 163//14 164//14 148//14
f 164//14 149//14 148//14
f 164//14 165//14 149//14
f 165//14 150//14 149//14
f 165//14 166//14 150//14
f 166//14 151//14 150//14
f 166//14 167//14 151//14
f 167//14 152//14 151//14
f 167//14 168//34 152//14
f 168//34 153//34 152//14
f 168//34 169//35 153//34
f 169//35 154//35 153//34
f 170//60 171//61 155//57
f 171//61 156//58 155//57
f 171//61 172//62 156//58
f 172//62 157//59 156//58
f 172//62 173//14 157//59
f 173//14 158//14 157//59
f 173//14 174//14 158//14
f 174//14 159//14 158//14
f 174//14 175//14 159//14
f 175//14 160//14 159//14
f 175//14 176//14 160//14
f 176//14 161//14 160//14
f 176//14 177//14 161//14
f 177//14 162//14 161//14
f 177//14 178//14 162//14
f 178//14 163//14 162//14
f 178//14 179//14 163//14
f 179//14 164//14 163//14
f 179//14 180//14 164//14
f 180//14 165//14 164//14
f 180//14 181//14 165//14
f 181//14 166//14 165//14
f 181//14 182//63 166//14
f 182//63 167//14 166//14
f 182//63 183//64 167//14
f 183//64 168//34 167//14
f 183//64 184//35 168//34
f 184//35 169//35 168//34
f 185//65 186//66 170//60
f 186//66 171//61 170//60
f 186//66 187//67 171//61
f 187//67 172//62 171//61
f 187//67 188//68 172//62
f 188//68 173//14 172//62
f 188//68 189//14 173//14
f 189//14 174//14 173//14
f 189//14 190//14 174//14
f 190//14 175//14 174//14
f 190//14 191//14 175//14
f 191//14 176//14 175//14
f 191//14 192//14 176//14
f 192//14 177//14 176//14
f 192//14 193//14 177//14
f 193//14 178//14 177//14
f 193//14 194//14 178//14
f 194//14 179//14 178//14
f 194//14 195//14 179//14
f 195//14 180//14 179//14
f 195//14 196//14 180//14
f 196//14 181//14 180//14
f 196//14 197//69 181//14
f 197//69 182//63 181//14
f 197//69 198//70 182//63
f 198//70 183//64 182//63
f 198//70 199//71 183//64
f 199//71 184//35 183//64
f 200//72 186//66 185//65
f 200//72 201//73 186//66
f 201//73 187//67 186//66
f 201//73 202//74 187//67
f 202//74 188//68 187//67
f 202//74 203//75 188//68
f 203//75 189//14 188//68
f 203//75 204//14 189//14
f 204//14 190//14 189//14
f 204//14 205//14 190//14
f 205//14 191//14 190//14
f 205//14 206//14 191//14
f 206//14 192//14 191//14
f 206//14 207//14 192//14
f 207//14 193//14 192//14
f 207//14 208//14 193//14
f 208//14 194//14 193//14
f 208//14 209//14 194//14
f 209//14 195//14 194//14
f 209//14 210//76 195//14
f 210//76 196//14 195//14
f 210//76 211//77 196//14
f 211//77 197//69 196//14
f 211//77 212//78 197//69
f 212//78 198//70 197//69
f 212//78 213//79 198//70
f 213//79 199//71 198//70
f 214//80 201//73 200//72
f 214//80 215//81 201//73
f 215//81 202//74 201//73
f 215//81 216//82 202//74
f 216//82 203//75 202//74
f 216//82 217//14 203//75
f 217//14 204//14 203//75
f 217//14 218//14 204//14
f 218//14 205//14 204//14
f 218//14 219//14 205//14
f 219//14 206//14 205//14
f 219//14 220//14 206//14
f 220//14 207//14 206//14
f 220//14 221//14 207//14
f 221//14 208//14 207//14
f 221//14 222//14 208//14
f 222//14 209//14 208//14
f 222//14 223//83 209//14
f 223//83 210//76 209//14
f 223//83 224//84 210//76
f 224//84 211//77 210//76
f 224//84 225//85 211//77
f 225//85 212//78 211//77
f 225//85 226//86 212//78
f 226//86 213//79 212//78
f 227//87 215//81 214//80
f 227//87 228//88 215//81
f 228//88 216//82 215//81
f 228//88 229//89 216//82
f 229//89 217//14 216//82
f 229//89 230//90 217//14
f 230//90 218//14 217//14
f 230//90 231//90 218//14
f 231//90 219//14 218//14
f 231//90 232//90 219//14
f 232//90 220//14 219//14
f 232//90 233//90 220//14
f 233//90 221//14 220//14
f 233//90 234//90 221//14
f 234//90 222//14 221//14
f 234//90 235//91 222//14
f 235//91 223//83 222//14
f 235//91 236//92 223//83
f 236//92 224//84 223//83
f 236//92 237//93 224//84
f 237//93 225//85 224//84
f 238//94 229//89 228//88
f 238//94 239//95 229//89
f 239//95 230//90 229//89
f 239//95 240//95 230//90
f 240//95 231//90 230//90
f 240//95 241//95 231//90
f 241//95 232//90 231//90
f 241//95 242//95 232//90
f 242//95 233//90 232//90
f 242//95 243//95 233//90
f 243//95 234//90 233//90
f 243//95 244//95 234//90
f 244//95 235//91 234//90
f 244//95 245//86 235//91
f 245//86 236//92 235//91
