# ProBuilder 4.4.0
# https://unity3d.com/unity/features/worldbuilding/probuilder
# 1/5/2021 1:16:52 PM

mtllib ./Island2.mtl
o Island2

g Island2
v 0 8.0001 0
v 34.05643 8.0001 -12.69215
v 67.82553 8.0001 -22.21625
v 85.409 8.0001 -37.87389
v 89.29456 8.0001 -65.98064
v 93.92404 8.0001 -78.92151
v 80.47614 8.0001 -101.1808
v 44.18353 8.0001 -124.4277
v 14.78345 8.0001 -136.0082
v -23.89249 8.0001 -142.5324
v -77.56499 8.0001 -125.4848
v -108.1345 8.0001 -118.3392
v -133.7298 8.0001 -116.8451
v -156.4728 8.0001 -82.26974
v -154.2956 8.0001 -54.39443
v -142.3159 8.0001 -25.26326
v -122.8234 8.0001 -23.26009
v -92.48067 8.0001 -16.86604
v -66.10392 8.0001 -0.5739899
v -50.04179 8.0001 -0.434494
v -18.00552 8.0001 3.575871
v 89.29456 0 -65.98064
v 85.40901 0 -37.87389
v 67.82553 0 -22.21624
v 34.05644 0 -12.69215
v -66.10392 0 -0.5739861
v -92.48068 0 -16.86605
v -50.04179 0 -0.4344902
v -122.8234 0 -23.26009
v -142.3159 0 -25.26326
v -154.2956 0 -54.39443
v -133.7298 0 -116.8451
v -108.1345 0 -118.3392
v -156.4728 0 -82.26974
v -77.565 0 -125.4848
v -23.89249 0 -142.5324
v -18.00552 0 3.575871
v 0 0 0
v 14.78346 0 -136.0082
v 44.18353 0 -124.4277
v 80.47614 0 -101.1808
v 93.92404 0 -78.92152

vt -1.390211E-14 2.663677E-14
vt -34.05643 -12.69215
vt -67.82553 -22.21625
vt -85.409 -37.87389
vt -89.29456 -65.98064
vt -93.92404 -78.92151
vt -80.47614 -101.1808
vt -44.18353 -124.4277
vt -14.78345 -136.0082
vt 23.89249 -142.5324
vt 77.56499 -125.4848
vt 108.1345 -118.3392
vt 133.7298 -116.8451
vt 156.4728 -82.26974
vt 154.2956 -54.39443
vt 142.3159 -25.26326
vt 122.8234 -23.26009
vt 92.48067 -16.86604
vt 66.10392 -0.5739899
vt 50.04179 -0.434494
vt 18.00552 3.575871
vt 77.58706 0
vt 49.21301 0
vt 77.58706 8.0001
vt 49.21301 8.0001
vt 88.97233 -2.601377E-05
vt 65.42789 -2.601377E-05
vt 88.97231 8.000074
vt 65.42789 8.000074
vt 71.30945 1.36352E-06
vt 36.22298 1.36352E-06
vt 71.30945 8.000101
vt 36.22297 8.000101
vt -56.54221 -1.38945E-05
vt -87.54487 -1.38945E-05
vt -56.54221 8.000086
vt -87.54486 8.000086
vt -50.04367 -5.289735E-11
vt -66.10641 -5.290015E-11
vt -50.04367 8.0001
vt -66.10641 8.0001
vt -124.5578 -6.051174E-06
vt -144.1529 -6.051174E-06
vt -124.5578 8.000094
vt -144.1529 8.000094
vt -77.49167 0
vt -108.9899 0
vt -77.49167 8.0001
vt -108.9899 8.0001
vt 126.6935 0
vt 101.0546 0
vt 126.6935 8.0001
vt 101.0546 8.0001
vt 17.25655 0
vt -24.12824 0
vt 17.25655 8.0001
vt -24.12824 8.0001
vt -66.24409 0
vt -94.20431 0
vt -66.24409 8.0001
vt -94.20431 8.0001
vt -93.97104 6.926156E-07
vt -124.9801 6.926156E-07
vt -93.97103 8.000101
vt -124.9802 8.000101
vt 78.36019 -3.035616E-05
vt 46.96669 -3.035616E-05
vt 78.36018 8.00007
vt 46.96668 8.00007
vt 35.93898 -0.0001713508
vt -20.37583 -0.0001713508
vt 35.93898 7.999929
vt -20.37583 7.999929
vt -17.42192 0
vt -49.70822 0
vt -17.42192 8.0001
vt -49.70822 8.0001
vt -18.35717 0
vt 0 8.0001
vt -18.35717 8.0001
vt 47.26819 0
vt 8.045829 0
vt 47.26819 8.0001
vt 8.045844 8.0001
vt 36.34463 -2.726027E-13
vt 36.34461 8.0001
vt 36.09055 -9.224381E-05
vt 4.49193 -9.224381E-05
vt 36.09056 8.000008
vt 4.49193 8.000008
vt 29.90805 0
vt -13.1915 0
vt 29.90805 8.0001
vt -13.1915 8.0001
vt 44.98844 0
vt 18.98224 0
vt 44.98844 8.0001
vt 18.98223 8.0001
vt 105.9466 1.986853E-05
vt 92.20258 1.986853E-05
vt 105.9466 8.00012
vt 92.20258 8.00012

vn 0 1 0
vn 0.9905794 0 0.1369401
vn 0.6650252 9.123115E-07 0.7468209
vn 0.2714465 4.589279E-07 0.9624535
vn -0.5255053 4.056834E-07 0.8507903
vn -0.008684438 4.768132E-07 0.9999623
vn -0.1022281 -5.718242E-07 0.994761
vn -0.9248511 0 0.3803295
vn -0.05827399 0 -0.9983006
vn -0.8354606 0 -0.5495504
vn -0.9969636 0 0.0778689
vn -0.2061989 -2.6994E-07 0.9785101
vn -0.2276157 2.170685E-07 -0.9737511
vn -0.3027191 1.197608E-06 -0.9530798
vn -0.1242125 0 0.9922557
vn 0.1947942 0 0.9808441
vn 0.166338 0 -0.9860688
vn 0.3492166 6.660694E-07 0.9370421
vn 0.3664882 6.99012E-07 -0.9304227
vn 0.5393769 0 -0.8420645
vn 0.8559227 0 -0.5171038
vn 0.9415634 -3.212278E-07 0.336836

usemtl ProBuilder_Default_URP
f 3/3/1 4/4/1 5/5/1
f 5/5/1 2/2/1 3/3/1
f 20/20/1 18/18/1 19/19/1
f 16/16/1 17/17/1 15/15/1
f 14/14/1 12/12/1 13/13/1
f 12/12/1 14/14/1 15/15/1
f 15/15/1 17/17/1 12/12/1
f 18/18/1 12/12/1 17/17/1
f 18/18/1 11/11/1 12/12/1
f 18/18/1 20/20/1 11/11/1
f 10/10/1 11/11/1 20/20/1
f 20/20/1 21/21/1 10/10/1
f 10/10/1 21/21/1 1/1/1
f 1/1/1 9/9/1 10/10/1
f 9/9/1 1/1/1 2/2/1
f 2/2/1 8/8/1 9/9/1
f 2/2/1 5/5/1 8/8/1
f 8/8/1 5/5/1 7/7/1
f 5/5/1 6/6/1 7/7/1
f 4/25/2 23/23/2 22/22/2
f 22/22/2 5/24/2 4/25/2
f 3/29/3 24/27/3 23/26/3
f 23/26/3 4/28/3 3/29/3
f 2/33/4 25/31/4 24/30/4
f 24/30/4 3/32/4 2/33/4
f 18/37/5 27/35/5 26/34/5
f 26/34/5 19/36/5 18/37/5
f 19/41/6 26/39/6 28/38/6
f 28/38/6 20/40/6 19/41/6
f 16/45/7 30/43/7 29/42/7
f 29/42/7 17/44/7 16/45/7
f 15/49/8 31/47/8 30/46/8
f 30/46/8 16/48/8 15/49/8
f 12/53/9 33/51/9 32/50/9
f 32/50/9 13/52/9 12/53/9
f 13/57/10 32/55/10 34/54/10
f 34/54/10 14/56/10 13/57/10
f 14/61/11 34/59/11 31/58/11
f 31/58/11 15/60/11 14/61/11
f 17/65/12 29/63/12 27/62/12
f 27/62/12 18/64/12 17/65/12
f 11/69/13 35/67/13 33/66/13
f 33/66/13 12/68/13 11/69/13
f 10/73/14 36/71/14 35/70/14
f 35/70/14 11/72/14 10/73/14
f 20/77/15 28/75/15 37/74/15
f 37/74/15 21/76/15 20/77/15
f 21/80/16 37/78/16 38/1/16
f 38/1/16 1/79/16 21/80/16
f 9/84/17 39/82/17 36/81/17
f 36/81/17 10/83/17 9/84/17
f 1/79/18 38/1/18 25/85/18
f 25/85/18 2/86/18 1/79/18
f 8/90/19 40/88/19 39/87/19
f 39/87/19 9/89/19 8/90/19
f 7/94/20 41/92/20 40/91/20
f 40/91/20 8/93/20 7/94/20
f 6/98/21 42/96/21 41/95/21
f 41/95/21 7/97/21 6/98/21
f 5/102/22 22/100/22 42/99/22
f 42/99/22 6/101/22 5/102/22

