# ProBuilder 4.4.0
# https://unity3d.com/unity/features/worldbuilding/probuilder
# 1/5/2021 1:16:52 PM

mtllib ./Island7.mtl
o Island7

g Island7
v 0 8.0001 0
v 56.47983 8.0001 -20.19141
v 62.26767 8.0001 -57.61826
v 79.1292 8.0001 -88.99448
v 76.52896 8.0001 -124.9649
v 49.38664 8.0001 -151.6647
v 27.95497 8.0001 -173.4439
v -50.52507 8.0001 -177.1363
v -106.9891 8.0001 -163.3683
v -129.7052 8.0001 -96.4201
v -125.9191 8.0001 -45.8342
v -91.54022 8.0001 -14.70267
v -23.44942 8.0001 8.359772
v 0 0 0
v -23.44942 0 8.359772
v -91.54022 0 -14.70267
v -125.9191 0 -45.8342
v -129.7052 0 -96.4201
v -106.9891 0 -163.3683
v -50.52507 0 -177.1363
v 62.26768 0 -57.61826
v 56.47983 0 -20.19141
v 27.95497 0 -173.4439
v 49.38664 0 -151.6647
v 76.52896 0 -124.9649
v 79.12922 0 -88.99448

vt 0 0
vt -56.47983 -20.19141
vt -62.26767 -57.61826
vt -79.1292 -88.99448
vt -76.52896 -124.9649
vt -49.38664 -151.6647
vt -27.95497 -173.4439
vt 50.52507 -177.1363
vt 106.9891 -163.3683
vt 129.7052 -96.4201
vt 125.9191 -45.8342
vt 91.54022 -14.70267
vt 23.44942 8.359772
vt -24.895 0
vt 0 8.0001
vt -24.895 8.0001
vt -19.52823 -2.361893E-06
vt -91.41866 -2.361893E-06
vt -19.52823 8.000098
vt -91.41866 8.000098
vt -77.72291 0
vt -124.1027 0
vt -77.72291 8.0001
vt -124.1027 8.0001
vt -55.10443 0
vt -105.8318 0
vt -55.10443 8.0001
vt -105.8318 8.0001
vt -49.63083 0
vt -120.3279 0
vt -49.63083 8.0001
vt -120.3279 8.0001
vt 65.24223 0
vt 7.123826 0
vt 65.24223 8.0001
vt 7.123826 8.0001
vt 66.45763 -4.969641E-05
vt 28.5859 -4.969641E-05
vt 66.45763 8.000051
vt 28.5859 8.000051
vt 59.98053 0
vt 59.98053 8.0001
vt 104.0183 0
vt 73.46261 0
vt 104.0183 8.0001
vt 73.46261 8.0001
vt 58.79413 0
vt -19.77272 0
vt 58.79413 8.0001
vt -19.77272 8.0001
vt 119.1218 0
vt 83.05759 0
vt 119.1218 8.0001
vt 83.05759 8.0001
vt 71.15066 0
vt 33.07725 0
vt 71.15066 8.0001
vt 33.07725 8.0001
vt 115.8495 -4.632715E-05
vt 80.2296 -4.632715E-05
vt 115.8495 8.000053
vt 80.2296 8.000053

vn 0 1 0
vn 0.3358012 0 0.9419329
vn -0.3207999 1.529674E-07 0.947147
vn -0.6712312 0 0.7412481
vn -0.9972109 0 0.0746358
vn -0.9469721 0 -0.3213157
vn -0.2368969 0 -0.9715348
vn 0.9882529 9.424596E-07 0.1528277
vn 0.3366327 0 0.9416361
vn 0.7127713 0 -0.7013965
vn 0.04699709 0 -0.998895
vn 0.9973974 0 -0.07210069
vn 0.7012715 0 -0.7128943
vn 0.8808616 1.680089E-06 0.4733739

usemtl ProBuilder_Default_URP
f 13/13/1 1/1/1 12/12/1
f 11/11/1 12/12/1 10/10/1
f 9/9/1 10/10/1 8/8/1
f 10/10/1 12/12/1 8/8/1
f 1/1/1 8/8/1 12/12/1
f 1/1/1 2/2/1 3/3/1
f 8/8/1 1/1/1 3/3/1
f 8/8/1 6/6/1 7/7/1
f 8/8/1 3/3/1 6/6/1
f 6/6/1 4/4/1 5/5/1
f 3/3/1 4/4/1 6/6/1
f 13/16/2 15/14/2 14/1/2
f 14/1/2 1/15/2 13/16/2
f 12/20/3 16/18/3 15/17/3
f 15/17/3 13/19/3 12/20/3
f 11/24/4 17/22/4 16/21/4
f 16/21/4 12/23/4 11/24/4
f 10/28/5 18/26/5 17/25/5
f 17/25/5 11/27/5 10/28/5
f 9/32/6 19/30/6 18/29/6
f 18/29/6 10/31/6 9/32/6
f 8/36/7 20/34/7 19/33/7
f 19/33/7 9/35/7 8/36/7
f 2/40/8 22/38/8 21/37/8
f 21/37/8 3/39/8 2/40/8
f 1/15/9 14/1/9 22/41/9
f 22/41/9 2/42/9 1/15/9
f 6/46/10 24/44/10 23/43/10
f 23/43/10 7/45/10 6/46/10
f 7/50/11 23/48/11 20/47/11
f 20/47/11 8/49/11 7/50/11
f 4/54/12 26/52/12 25/51/12
f 25/51/12 5/53/12 4/54/12
f 5/58/13 25/56/13 24/55/13
f 24/55/13 6/57/13 5/58/13
f 3/62/14 21/60/14 26/59/14
f 26/59/14 4/61/14 3/62/14

